<?xml version="1.0" encoding="UTF-8" standalone="no"?>
<svg
   fill="#ffffff"
   width="208.65482"
   height="99.895119"
   viewBox="0 0 208.65482 99.895119"
   version="1.1"
   id="svg14861"
   sodipodi:docname="logo.svg"
   inkscape:version="1.1.2 (0a00cf5339, 2022-02-04)"
   xmlns:inkscape="http://www.inkscape.org/namespaces/inkscape"
   xmlns:sodipodi="http://sodipodi.sourceforge.net/DTD/sodipodi-0.dtd"
   xmlns="http://www.w3.org/2000/svg"
   xmlns:svg="http://www.w3.org/2000/svg">
  <defs
     id="defs14865">
    <rect
       x="1.6954943"
       y="1.8551801"
       width="352.47662"
       height="119.68321"
       id="rect19725" />
  </defs>
  <sodipodi:namedview
     id="namedview14863"
     pagecolor="#ffffff"
     bordercolor="#666666"
     borderopacity="1.0"
     inkscape:pageshadow="2"
     inkscape:pageopacity="0.0"
     inkscape:pagecheckerboard="true"
     showgrid="false"
     inkscape:zoom="2.6898758"
     inkscape:cx="140.52694"
     inkscape:cy="42.38114"
     inkscape:window-width="1920"
     inkscape:window-height="1021"
     inkscape:window-x="1366"
     inkscape:window-y="27"
     inkscape:window-maximized="1"
     inkscape:current-layer="svg14861"
     fit-margin-top="0"
     fit-margin-left="0"
     fit-margin-right="0"
     fit-margin-bottom="0" />
  <g
     aria-label="Music for 
Mind"
     transform="translate(-6.5130177,-8.9955964)"
     id="text19723"
     style="font-size:49.3333px;line-height:1.25;font-family:'Open Sans';-inkscape-font-specification:'Open Sans, Normal';white-space:pre;shape-inside:url(#rect19725)">
    <path
       d="M 22.00194,46.742317 10.174474,15.571764 H 9.9817655 q 0.096355,0.98763 0.1686195,2.408853 0.07227,1.421223 0.120443,3.107419 0.04818,1.662109 0.04818,3.396483 V 46.742317 H 6.5130177 V 11.524892 h 6.0703083 l 11.152988,29.291647 h 0.16862 L 35.226541,11.524892 h 6.022131 V 46.742317 H 37.2018 V 24.195456 q 0,-1.565754 0.04818,-3.131508 0.04818,-1.589843 0.120443,-2.986977 0.07226,-1.421223 0.144531,-2.45703 H 37.322243 L 25.350245,46.742317 Z"
       id="path25915" />
    <path
       d="m 72.081988,20.341292 v 26.401025 h -3.27604 l -0.578124,-3.709633 h -0.216797 q -0.81901,1.373046 -2.11979,2.312498 -1.300781,0.939453 -2.938801,1.397135 -1.613931,0.48177 -3.444659,0.48177 -3.131508,0 -5.251299,-1.011718 -2.11979,-1.011718 -3.203774,-3.131508 -1.059895,-2.11979 -1.059895,-5.444007 V 20.341292 h 4.046873 v 17.0065 q 0,3.300128 1.493488,4.938148 1.493489,1.613931 4.552732,1.613931 2.9388,0 4.673174,-1.108072 1.758462,-1.108073 2.529295,-3.251951 0.770833,-2.167968 0.770833,-5.299476 v -13.89908 z"
       id="path25917" />
    <path
       d="m 97.615821,39.515759 q 0,2.529295 -1.276692,4.263669 -1.252603,1.710285 -3.613279,2.577472 -2.336587,0.867187 -5.588538,0.867187 -2.770181,0 -4.793617,-0.433593 -2.023436,-0.433594 -3.541013,-1.228515 v -3.685544 q 1.613931,0.794921 3.854164,1.445311 2.240233,0.65039 4.57682,0.65039 3.420571,0 4.962236,-1.108072 1.541666,-1.108072 1.541666,-3.011066 0,-1.083983 -0.626302,-1.902993 -0.602213,-0.843099 -2.047524,-1.613931 -1.445312,-0.794922 -3.998696,-1.734374 -2.529295,-0.963541 -4.384111,-1.902994 -1.830728,-0.963541 -2.842446,-2.336587 -0.98763,-1.373046 -0.98763,-3.565102 0,-3.348305 2.697915,-5.130856 2.722003,-1.806639 7.130204,-1.806639 2.384764,0 4.456377,0.48177 2.095702,0.457682 3.902341,1.252604 l -1.348957,3.203774 q -1.63802,-0.698568 -3.492837,-1.180338 -1.854816,-0.481771 -3.781898,-0.481771 -2.770181,0 -4.263669,0.915364 -1.4694,0.915364 -1.4694,2.505207 0,1.228515 0.674478,2.023436 0.698568,0.794921 2.216145,1.493489 1.517577,0.698567 3.998695,1.63802 2.481118,0.915364 4.287758,1.902993 1.806639,0.963541 2.77018,2.360676 0.98763,1.373046 0.98763,3.541013 z"
       id="path25919" />
    <path
       d="m 108.04616,20.341292 v 26.401025 h -3.9987 V 20.341292 Z m -1.95117,-9.876296 q 0.98763,0 1.68619,0.650391 0.72266,0.626301 0.72266,1.975259 0,1.324869 -0.72266,1.975259 -0.69856,0.65039 -1.68619,0.65039 -1.03581,0 -1.73438,-0.65039 -0.67448,-0.65039 -0.67448,-1.975259 0,-1.348958 0.67448,-1.975259 0.69857,-0.650391 1.73438,-0.650391 z"
       id="path25921" />
    <path
       d="m 127.07609,47.224087 q -3.5651,0 -6.2871,-1.4694 -2.72201,-1.4694 -4.23958,-4.480466 -1.51758,-3.011065 -1.51758,-7.587885 0,-4.793617 1.58984,-7.828771 1.61393,-3.059243 4.43229,-4.528643 2.81836,-1.4694 6.40755,-1.4694 1.97526,0 3.80598,0.409505 1.85482,0.385416 3.03516,0.987629 l -1.20443,3.348305 q -1.20442,-0.48177 -2.79427,-0.867187 -1.56575,-0.385416 -2.9388,-0.385416 -2.74609,0 -4.57682,1.180338 -1.80664,1.180338 -2.722,3.468748 -0.89128,2.288409 -0.89128,5.636715 0,3.203774 0.86719,5.468095 0.89128,2.264322 2.62565,3.468748 1.75846,1.180338 4.38411,1.180338 2.0957,0 3.7819,-0.433594 1.6862,-0.457682 3.05924,-1.059895 v 3.565102 q -1.32486,0.674479 -2.96288,1.035806 -1.61394,0.361328 -3.85417,0.361328 z"
       id="path25923" />
    <path
       d="m 164.70237,23.472801 h -6.57617 v 23.269516 h -3.9987 V 23.472801 h -4.67317 v -1.927083 l 4.67317,-1.324868 v -1.758463 q 0,-3.324216 0.98763,-5.39583 0.98763,-2.095701 2.86654,-3.0833311 1.8789,-0.9876295 4.57682,-0.9876295 1.51758,0 2.77018,0.2649738 1.27669,0.2649737 2.24023,0.6022131 l -1.0358,3.1555967 q -0.81901,-0.264974 -1.85482,-0.48177 -1.01172,-0.240886 -2.07161,-0.240886 -2.28841,0 -3.39649,1.493489 -1.08398,1.4694 -1.08398,4.624997 v 1.927082 h 6.57617 z"
       id="path25925" />
    <path
       d="m 192.30782,33.493627 q 0,3.251951 -0.84309,5.805335 -0.8431,2.553384 -2.43295,4.311846 -1.58984,1.758463 -3.85416,2.697915 -2.24023,0.915364 -5.08268,0.915364 -2.64974,0 -4.86588,-0.915364 -2.19206,-0.939452 -3.80599,-2.697915 -1.58984,-1.758462 -2.48112,-4.311846 -0.86718,-2.553384 -0.86718,-5.805335 0,-4.335934 1.4694,-7.371089 1.4694,-3.059242 4.1914,-4.649085 2.74609,-1.613931 6.52799,-1.613931 3.61328,0 6.31119,1.613931 2.72201,1.613931 4.2155,4.673174 1.51757,3.035154 1.51757,7.347 z m -20.08983,0 q 0,3.179686 0.8431,5.516273 0.8431,2.336587 2.60156,3.613279 1.75846,1.276692 4.52864,1.276692 2.7461,0 4.50456,-1.276692 1.78255,-1.276692 2.62565,-3.613279 0.8431,-2.336587 0.8431,-5.516273 0,-3.155596 -0.8431,-5.444006 -0.8431,-2.312499 -2.60156,-3.565102 -1.75846,-1.252604 -4.55273,-1.252604 -4.11914,0 -6.04622,2.722004 -1.903,2.722003 -1.903,7.539708 z"
       id="path25927" />
    <path
       d="m 211.21732,19.859522 q 0.79492,0 1.6621,0.09635 0.86719,0.07227 1.54167,0.216797 l -0.50586,3.709633 q -0.65039,-0.16862 -1.44531,-0.264974 -0.79492,-0.09635 -1.49349,-0.09635 -1.58984,0 -3.01107,0.65039 -1.39713,0.626302 -2.45703,1.830728 -1.05989,1.180338 -1.6621,2.866534 -0.60222,1.662109 -0.60222,3.709633 v 14.164054 h -4.02278 V 20.341292 h 3.32422 l 0.43359,4.865882 h 0.16862 q 0.81901,-1.4694 1.97526,-2.673826 1.15625,-1.228515 2.67382,-1.951171 1.54167,-0.722655 3.42058,-0.722655 z"
       id="path25929" />
    <path
       d="M 22.00194,108.40894 10.174474,77.23839 H 9.9817655 q 0.096355,0.98763 0.1686195,2.408853 0.07227,1.421223 0.120443,3.107419 0.04818,1.662109 0.04818,3.396483 V 108.40894 H 6.5130177 V 73.191518 h 6.0703083 l 11.152988,29.291652 h 0.16862 L 35.226541,73.191518 h 6.022131 V 108.40894 H 37.2018 V 85.862082 q 0,-1.565754 0.04818,-3.131508 0.04818,-1.589843 0.120443,-2.986977 0.07226,-1.421223 0.144531,-2.45703 H 37.322243 L 25.350245,108.40894 Z"
       id="path25931" />
    <path
       d="M 54.280567,82.007918 V 108.40894 H 50.281872 V 82.007918 Z m -1.951171,-9.876296 q 0.98763,0 1.686197,0.650391 0.722656,0.626301 0.722656,1.975259 0,1.324869 -0.722656,1.975259 -0.698567,0.65039 -1.686197,0.65039 -1.035806,0 -1.734374,-0.65039 -0.674478,-0.65039 -0.674478,-1.975259 0,-1.348958 0.674478,-1.975259 0.698568,-0.650391 1.734374,-0.650391 z"
       id="path25933" />
    <path
       d="m 75.237586,81.526148 q 4.697263,0 7.106116,2.312498 2.408852,2.28841 2.408852,7.371089 V 108.40894 H 80.802036 V 91.474709 q 0,-3.300128 -1.517577,-4.938148 -1.493489,-1.63802 -4.600909,-1.63802 -4.384111,0 -6.166662,2.481118 -1.782551,2.481119 -1.782551,7.20247 V 108.40894 H 62.735641 V 82.007918 h 3.227863 l 0.602213,3.805987 h 0.216797 q 0.843098,-1.397134 2.143879,-2.336587 1.30078,-0.963541 2.914711,-1.445311 1.613931,-0.505859 3.396482,-0.505859 z"
       id="path25935" />
    <path
       d="m 102.38535,108.89071 q -5.010409,0 -7.949209,-3.42057 -2.914712,-3.42057 -2.914712,-10.165355 0,-6.817053 2.986977,-10.285801 2.986978,-3.492836 7.949214,-3.492836 2.0957,0 3.66146,0.554036 1.56575,0.554036 2.69791,1.493488 1.13216,0.915364 1.90299,2.095702 h 0.28907 q -0.0964,-0.746744 -0.19271,-2.047525 -0.0964,-1.30078 -0.0964,-2.11979 V 70.927196 h 3.9987 v 37.481744 h -3.22786 l -0.60222,-3.75781 h -0.16862 q -0.74674,1.18034 -1.90299,2.14388 -1.13216,0.96354 -2.722,1.54167 -1.56576,0.55403 -3.70964,0.55403 z m 0.62631,-3.32421 q 4.23958,0 5.99804,-2.40886 1.75846,-2.40885 1.75846,-7.154288 v -0.722656 q 0,-5.034502 -1.6862,-7.732417 -1.6621,-2.697915 -6.0703,-2.697915 -3.685548,0 -5.516276,2.842446 -1.830728,2.818358 -1.830728,7.708329 0,4.865881 1.806639,7.515621 1.830728,2.64974 5.540365,2.64974 z"
       id="path25937" />
  </g>
</svg>
